<svg width="223" height="256" viewBox="0 0 223 256" fill="none" xmlns="http://www.w3.org/2000/svg">
<g clip-path="url(#clip0_2403_1472)">
<path d="M20.1846 226.462L0 0H222.031L201.846 226.462L110.769 252.062" fill="#3552D9"/>
<path d="M111.262 232.369L184.616 212.185L201.846 18.2153H111.262" fill="#3F68E7"/>
<path d="M111.261 102.4H46.2766L48.7381 130.461H111.261V102.4ZM111.261 46.2769H41.3535L43.8151 73.8461H111.261V46.2769ZM111.261 174.769L50.2151 158.523L53.6612 188.061L111.261 203.815V174.769Z" fill="#EBEAEF"/>
<path d="M111.262 130.461H145.231L141.785 166.4L111.262 174.769V203.815L167.877 188.061L180.677 46.2769H111.262V73.8461H150.646L147.692 102.4H111.262V130.461Z" fill="#FFFEFF"/>
</g>
<defs>
<clipPath id="clip0_2403_1472">
<rect width="222.523" height="256" fill="white"/>
</clipPath>
</defs>
</svg>
