<svg width="256" height="256" viewBox="0 0 256 256" fill="none" xmlns="http://www.w3.org/2000/svg">
<g clip-path="url(#clip0_2437_1289)">
<path d="M128 0C198.72 0 256 57.28 256 128C255.993 154.819 247.576 180.961 231.933 202.746C216.291 224.531 194.21 240.862 168.8 249.44C162.4 250.72 160 246.72 160 243.36C160 239.04 160.16 225.28 160.16 208.16C160.16 196.16 156.16 188.48 151.52 184.48C180 181.28 209.92 170.4 209.92 121.28C209.92 107.2 204.96 95.84 196.8 86.88C198.08 83.68 202.56 70.56 195.52 52.96C195.52 52.96 184.8 49.44 160.32 66.08C150.08 63.2 139.2 61.76 128.32 61.76C117.44 61.76 106.56 63.2 96.32 66.08C71.84 49.6 61.12 52.96 61.12 52.96C54.08 70.56 58.56 83.68 59.84 86.88C51.68 95.84 46.72 107.36 46.72 121.28C46.72 170.24 76.48 181.28 104.96 184.48C101.28 187.68 97.92 193.28 96.8 201.6C89.44 204.96 71.04 210.4 59.52 191.04C57.12 187.2 49.92 177.76 39.84 177.92C29.12 178.08 35.52 184 40 186.4C45.44 189.44 51.68 200.8 53.12 204.48C55.68 211.68 64 225.44 96.16 219.52C96.16 230.24 96.32 240.32 96.32 243.36C96.32 246.72 93.92 250.56 87.52 249.44C62.0262 240.954 39.8518 224.656 24.1423 202.858C8.43275 181.06 -0.0140877 154.869 1.7637e-05 128C1.7637e-05 57.28 57.28 0 128 0Z" fill="black"/>
</g>
<defs>
<clipPath id="clip0_2437_1289">
<rect width="256" height="256" fill="white"/>
</clipPath>
</defs>
</svg>
