<svg width="223" height="256" viewBox="0 0 223 256" fill="none" xmlns="http://www.w3.org/2000/svg">
<g clip-path="url(#clip0_2403_1473)">
<path d="M20.1846 226.462L0 0H222.031L201.846 226.462L110.769 252.062" fill="#CE593C"/>
<path d="M111.262 232.369L184.616 212.185L201.846 18.2153H111.262" fill="#DB6E42"/>
<path d="M111.261 102.4H74.3381L71.8766 73.8461H111.261V46.2769H41.3535L48.7381 130.461H111.261V102.4ZM111.261 174.769L79.7535 166.4L77.7843 144.246H50.2151L53.6612 188.061L111.261 203.815V174.769Z" fill="#E9E9F2"/>
<path d="M111.262 130.461H145.231L141.785 166.4L111.262 174.769V203.815L167.877 188.061L175.754 102.4H111.262V130.461ZM111.262 46.2769V73.8461H178.216L180.677 46.2769H111.262Z" fill="white"/>
</g>
<defs>
<clipPath id="clip0_2403_1473">
<rect width="222.523" height="256" fill="white"/>
</clipPath>
</defs>
</svg>
