<svg width="256" height="67" viewBox="0 0 256 67" fill="none" xmlns="http://www.w3.org/2000/svg">
<g clip-path="url(#clip0_2403_1498)">
<path d="M66.6348 33.4896C66.6348 14.9939 51.7182 0 33.3178 0C14.9166 0 0 14.9939 0 33.4896C0 51.9848 14.9166 66.9791 33.3174 66.9791C51.7182 66.9791 66.6348 51.9848 66.6348 33.4896Z" fill="#339AF0"/>
<path d="M27.1139 17.6896C26.8153 18.0953 26.643 18.58 26.6184 19.0831C26.5938 19.5862 26.7182 20.0855 26.9758 20.5183C27.1468 20.8044 27.3728 21.0539 27.6407 21.2522C31.5214 24.1434 33.7494 28.564 33.7494 33.3824C33.7494 38.2008 31.5214 42.6214 27.6407 45.5126C27.3731 45.711 27.1474 45.9604 26.9767 46.2465C26.6302 46.8263 26.5276 47.5197 26.6915 48.1749C26.7724 48.4995 26.9158 48.8049 27.1139 49.0732C27.3116 49.3416 27.5604 49.5683 27.846 49.7402C28.1316 49.9121 28.4484 50.0258 28.7781 50.0749C29.1078 50.1239 29.444 50.1073 29.7672 50.0259C30.0905 49.9445 30.3945 49.8001 30.6617 49.6008C31.857 48.7098 32.9519 47.6916 33.9273 46.5641H41.1154C42.515 46.5641 43.6524 45.4251 43.6524 44.0189C43.6524 42.6128 42.5175 41.4737 41.1154 41.4737H37.148C38.257 38.9208 38.8266 36.1662 38.8209 33.3828C38.8268 30.5992 38.2574 27.8443 37.1484 25.2911H41.1179C42.5175 25.2911 43.6545 24.1524 43.6545 22.7459C43.6545 21.3397 42.5195 20.2011 41.1179 20.2011H33.9314C32.9555 19.0725 31.8599 18.0533 30.6638 17.1615C30.3969 16.9625 30.0933 16.8182 29.7705 16.7369C29.4477 16.6556 29.1119 16.6389 28.7826 16.6878C28.1164 16.7878 27.5172 17.1481 27.1164 17.6896H27.1139Z" fill="white"/>
<path fill-rule="evenodd" clip-rule="evenodd" d="M23.1085 32.6231C23.0964 32.1166 23.1847 31.6127 23.3682 31.1405C23.551 30.6696 23.8258 30.2398 24.1765 29.8761C24.5257 29.5141 24.9441 29.2258 25.4068 29.0284C25.8682 28.8318 26.3646 28.7305 26.8661 28.7305C27.3677 28.7305 27.8641 28.8318 28.3255 29.0284C28.7883 29.2257 29.2069 29.514 29.5562 29.8761C29.9069 30.2398 30.1816 30.6696 30.3645 31.1405C30.5477 31.6128 30.6357 32.1167 30.6233 32.6231C30.6005 33.6126 30.1947 34.5547 29.4913 35.2509C28.7925 35.9424 27.8494 36.3307 26.8663 36.3316C25.883 36.3309 24.9396 35.9426 24.2406 35.2509C23.5371 34.5547 23.1313 33.6126 23.1085 32.6231Z" fill="white"/>
<path d="M119.879 52.0399C120.694 52.0399 121.449 51.8616 122.146 51.5049C122.842 51.1483 123.191 50.6301 123.191 49.9508V18.1049C123.191 16.8821 122.851 16.0245 122.171 15.5318C121.492 15.0391 120.728 14.793 119.879 14.793C119.097 14.793 118.418 14.878 117.84 15.0477C117.263 15.2174 116.745 15.5573 116.286 16.0668C115.828 16.5763 115.293 17.3238 114.681 18.3088L108.414 29.7223L102.198 18.3088C101.654 17.3238 101.136 16.5763 100.644 16.0668C100.151 15.5573 99.6246 15.2174 99.0641 15.0477C98.5036 14.878 97.8157 14.793 97.0004 14.793C96.1852 14.793 95.4295 15.0395 94.733 15.5318C94.0365 16.0245 93.6885 16.8821 93.6885 18.1049V49.9508C93.6885 50.6301 94.0365 51.1483 94.733 51.5049C95.4295 51.8616 96.1852 52.0399 97.0004 52.0399C97.8498 52.0399 98.6141 51.8616 99.2934 51.5049C99.9726 51.1483 100.312 50.6301 100.312 49.9508V27.6332L106.172 38.6392C106.478 39.1487 106.826 39.4968 107.217 39.6837C107.607 39.8707 107.989 39.964 108.363 39.964C108.771 39.964 109.178 39.8621 109.586 39.6583C109.994 39.4544 110.35 39.1146 110.656 38.6392L116.567 28.0409V49.9508C116.567 50.6301 116.915 51.1483 117.611 51.5049C118.308 51.8616 119.063 52.0399 119.879 52.0399ZM134.004 52.4985C135.77 52.4985 137.273 52.0909 138.513 51.2756C139.753 50.4604 140.832 49.5264 141.749 48.4732V49.9508C141.749 50.5282 142.029 51.0209 142.589 51.4285C143.15 51.8361 143.855 52.0399 144.704 52.0399C145.621 52.0399 146.385 51.8361 146.997 51.4285C147.608 51.0209 147.914 50.5286 147.914 49.9508V37.4673C147.914 35.7348 147.549 34.1212 146.819 32.6267C146.088 31.1322 144.925 29.9093 143.328 28.958C141.731 28.0068 139.609 27.5313 136.959 27.5313C135.77 27.5313 134.547 27.6842 133.29 27.9899C132.033 28.2956 130.972 28.7287 130.106 29.2892C129.24 29.8497 128.807 30.4866 128.807 31.2C128.807 31.9474 129.002 32.6776 129.392 33.391C129.783 34.1043 130.335 34.461 131.048 34.461C131.49 34.461 131.897 34.3254 132.271 34.0534C132.645 33.7818 133.18 33.5184 133.876 33.2636C134.572 33.0088 135.566 32.8814 136.857 32.8814C138.012 32.8814 138.904 33.1194 139.532 33.5948C140.161 34.0702 140.619 34.6648 140.908 35.3782C141.193 36.0735 141.34 36.8176 141.341 37.5692V38.2316H139.252C136.908 38.2316 134.844 38.4522 133.061 38.894C131.278 39.3357 129.885 40.1 128.883 41.1869C127.881 42.2737 127.38 43.7855 127.38 45.7217C127.38 48.0315 128.034 49.7384 129.342 50.8425C130.649 51.9467 132.203 52.4985 134.004 52.4985ZM136.653 47.607C135.906 47.607 135.269 47.3863 134.743 46.9446C134.216 46.5029 133.953 45.8064 133.953 44.8555C133.953 43.9042 134.267 43.1995 134.895 42.7409C135.524 42.2824 136.348 41.9849 137.367 41.8493C138.386 41.7136 139.456 41.6454 140.577 41.6454H141.341V42.7155C141.341 43.5307 141.095 44.3119 140.602 45.0593C140.11 45.8068 139.507 46.4182 138.793 46.8936C138.08 47.3691 137.367 47.607 136.653 47.607ZM171.24 52.0399C172.089 52.0399 172.853 51.8616 173.533 51.5049C174.212 51.1483 174.552 50.6301 174.552 49.9508V37.8749C174.552 35.9723 174.153 34.2403 173.354 32.6776C172.556 31.1149 171.494 29.867 170.17 28.9326C168.845 27.9985 167.384 27.5313 165.788 27.5313C164.089 27.5313 162.654 27.9303 161.482 28.7287C160.31 29.5271 159.469 30.4188 158.96 31.4038V29.8752C158.96 29.2638 158.68 28.7711 158.119 28.3975C157.559 28.0236 156.871 27.8371 156.056 27.8371C155.104 27.8371 154.323 28.024 153.712 28.3975C153.1 28.7715 152.794 29.2638 152.794 29.8752V49.9508C152.794 50.4604 153.1 50.9358 153.712 51.3775C154.323 51.8193 155.105 52.0399 156.056 52.0399C156.973 52.0399 157.754 51.8193 158.399 51.3775C159.045 50.9358 159.367 50.4604 159.367 49.9508V37.8749C159.367 36.9236 159.571 36.1084 159.979 35.4291C160.387 34.7499 160.913 34.2231 161.558 33.8496C162.204 33.4756 162.866 33.2891 163.546 33.2891C164.361 33.2891 165.108 33.5184 165.788 33.9769C166.467 34.4355 167.002 35.0042 167.393 35.6839C167.779 36.349 167.982 37.1054 167.979 37.8749V49.9508C167.979 50.6301 168.335 51.1483 169.049 51.5049C169.762 51.8616 170.492 52.0399 171.24 52.0399ZM190.73 52.0399C191.681 52.0399 192.386 51.7511 192.845 51.1737C193.303 50.5964 193.533 49.9508 193.533 49.2375C193.533 48.5583 193.303 47.9296 192.845 47.3522C192.386 46.7749 191.681 46.486 190.73 46.486H188.743C187.69 46.486 186.951 46.2822 186.526 45.8746C186.102 45.4669 185.89 44.7704 185.89 43.7855V32.6267H191.902C192.446 32.6267 192.862 32.3801 193.15 31.8878C193.439 31.3952 193.584 30.8433 193.584 30.2319C193.584 29.6204 193.439 29.0686 193.15 28.5759C192.862 28.0832 192.446 27.8371 191.902 27.8371H185.89V19.0731C185.89 18.4616 185.542 17.9689 184.845 17.5954C184.149 17.2215 183.393 17.0349 182.578 17.0349C181.83 17.0349 181.1 17.2219 180.387 17.5954C179.673 17.9693 179.317 18.4616 179.317 19.0731V43.7855C179.317 46.6389 180.123 48.728 181.737 50.0528C183.351 51.3775 185.686 52.0399 188.743 52.0399H190.73ZM200.211 22.436C201.196 22.436 202.036 22.1048 202.733 21.4424C203.429 20.78 203.778 20.0412 203.778 19.2259C203.778 18.3425 203.429 17.5868 202.733 16.9585C202.036 16.3298 201.196 16.0159 200.211 16.0159C199.226 16.0159 198.376 16.3302 197.663 16.9585C196.95 17.5872 196.593 18.3429 196.593 19.2259C196.593 20.0412 196.95 20.78 197.663 21.4424C198.376 22.1048 199.226 22.436 200.211 22.436ZM200.211 52.0399C201.128 52.0399 201.909 51.8193 202.555 51.3775C203.2 50.9358 203.523 50.4604 203.523 49.9508V29.8752C203.523 29.2638 203.2 28.7711 202.555 28.3975C201.91 28.0236 201.128 27.8371 200.211 27.8371C199.26 27.8371 198.478 28.024 197.867 28.3975C197.255 28.7715 196.95 29.2638 196.95 29.8752V49.9508C196.95 50.4604 197.255 50.9358 197.867 51.3775C198.478 51.8193 199.26 52.0399 200.211 52.0399ZM227.022 52.0399C227.871 52.0399 228.635 51.8616 229.315 51.5049C229.994 51.1483 230.334 50.6301 230.334 49.9508V37.8749C230.334 35.9723 229.934 34.2403 229.136 32.6776C228.338 31.1149 227.277 29.867 225.952 28.9326C224.627 27.9985 223.166 27.5313 221.57 27.5313C219.871 27.5313 218.436 27.9303 217.264 28.7287C216.092 29.5271 215.251 30.4188 214.742 31.4038V29.8752C214.742 29.2638 214.462 28.7711 213.901 28.3975C213.341 28.0236 212.653 27.8371 211.838 27.8371C210.886 27.8371 210.105 28.024 209.494 28.3975C208.882 28.7715 208.577 29.2638 208.577 29.8752V49.9508C208.577 50.4604 208.882 50.9358 209.494 51.3775C210.105 51.8193 210.887 52.0399 211.838 52.0399C212.755 52.0399 213.536 51.8193 214.181 51.3775C214.827 50.9358 215.15 50.4604 215.15 49.9508V37.8749C215.15 36.9236 215.353 36.1084 215.761 35.4291C216.169 34.7499 216.695 34.2231 217.341 33.8496C217.986 33.4756 218.648 33.2891 219.328 33.2891C220.143 33.2891 220.89 33.5184 221.57 33.9769C222.249 34.4355 222.784 35.0042 223.175 35.6839C223.562 36.349 223.764 37.1054 223.761 37.8749V49.9508C223.761 50.6301 224.117 51.1483 224.831 51.5049C225.544 51.8616 226.274 52.0399 227.022 52.0399ZM246.614 52.4985C248.448 52.4985 250.036 52.2692 251.378 51.8106C252.72 51.3521 253.756 50.7916 254.486 50.1292C255.217 49.4668 255.582 48.8471 255.582 48.2694C255.582 47.9296 255.48 47.5306 255.276 47.072C255.075 46.6165 254.78 46.2085 254.41 45.8746C254.036 45.5347 253.595 45.365 253.085 45.365C252.609 45.365 252.1 45.5179 251.557 45.8236C251.013 46.1293 250.367 46.4523 249.62 46.7917C248.873 47.1316 247.939 47.3013 246.818 47.3013C245.051 47.3013 243.616 46.8513 242.512 45.951C241.408 45.0511 240.856 43.8705 240.856 42.4097V41.6454H251.2C251.981 41.6454 252.737 41.569 253.467 41.4161C254.198 41.2633 254.8 40.8725 255.276 40.2442C255.752 39.6155 255.99 38.5714 255.99 37.1106C255.99 35.208 255.497 33.5438 254.512 32.1171C253.527 30.6904 252.245 29.5695 250.665 28.7542C249.085 27.939 247.345 27.5313 245.442 27.5313C243.37 27.5313 241.493 27.9985 239.812 28.9326C238.13 29.8666 236.788 31.1063 235.787 32.6522C234.784 34.1976 234.283 35.8877 234.283 37.722V42.0531C234.283 44.1253 234.81 45.951 235.863 47.5306C236.916 49.1101 238.368 50.333 240.219 51.1992C242.071 52.0654 244.202 52.4985 246.614 52.4985ZM248.296 37.773H240.856V36.3463C240.856 35.531 241.068 34.8259 241.493 34.2317C241.918 33.6371 242.47 33.1785 243.149 32.856C243.829 32.5334 244.559 32.3719 245.34 32.3719C246.156 32.3719 246.903 32.5416 247.582 32.8814C248.262 33.2213 248.805 33.6967 249.213 34.3081C249.62 34.9196 249.824 35.6161 249.824 36.3972C249.824 36.9409 249.714 37.3058 249.493 37.4927C249.272 37.6797 248.873 37.773 248.296 37.773Z" fill="#339AF0"/>
</g>
<defs>
<clipPath id="clip0_2403_1498">
<rect width="256" height="66.9791" fill="white"/>
</clipPath>
</defs>
</svg>
