<svg width="256" height="228" viewBox="0 0 256 228" fill="none" xmlns="http://www.w3.org/2000/svg">
<g clip-path="url(#clip0_2403_1509)">
<path d="M128 136.701C140.602 136.701 150.817 126.485 150.817 113.884C150.817 101.282 140.602 91.0664 128 91.0664C115.398 91.0664 105.183 101.282 105.183 113.884C105.183 126.485 115.398 136.701 128 136.701Z" fill="#61DAFB"/>
<path d="M128 160.632C195.619 160.632 250.435 139.702 250.435 113.884C250.435 88.0657 195.619 67.136 128 67.136C60.3813 67.136 5.56543 88.0657 5.56543 113.884C5.56543 139.702 60.3813 160.632 128 160.632Z" stroke="#61DAFB" stroke-width="10"/>
<path d="M87.5154 137.258C121.325 195.817 166.858 232.825 189.218 219.915C211.577 207.006 202.294 149.07 168.485 90.5099C134.676 31.9502 89.1419 -5.05687 66.7828 7.85218C44.4236 20.7612 53.7059 78.6981 87.5154 137.258Z" stroke="#61DAFB" stroke-width="10"/>
<path d="M87.5151 90.5099C53.7057 149.07 44.4234 207.006 66.7826 219.915C89.1417 232.824 134.675 195.817 168.485 137.258C202.294 78.6981 211.576 20.7612 189.217 7.85216C166.858 -5.0569 121.325 31.9502 87.5151 90.5099Z" stroke="#61DAFB" stroke-width="10"/>
</g>
<defs>
<clipPath id="clip0_2403_1509">
<rect width="256" height="227.767" fill="white"/>
</clipPath>
</defs>
</svg>
