<svg width="256" height="32" viewBox="0 0 256 32" fill="none" xmlns="http://www.w3.org/2000/svg">
<path fill-rule="evenodd" clip-rule="evenodd" d="M26.3401 0C19.3156 0 14.9265 3.4911 13.1695 10.4733C15.8039 6.98219 18.8769 5.67329 22.3886 6.54555C24.3923 7.0431 25.825 8.48826 27.4095 10.0883C29.9923 12.6937 32.9817 15.7089 39.5097 15.7089C46.5332 15.7089 50.9234 12.2178 52.6792 5.23664C50.0459 8.72774 46.9729 10.0366 43.4612 9.16335C41.4565 8.66581 40.0237 7.22064 38.4392 5.62168C35.8565 3.01419 32.8681 0 26.3401 0ZM13.1695 15.7089C6.14606 15.7089 1.75587 19.2 0 26.1822C2.63432 22.6911 5.70736 21.3822 9.21806 22.2545C11.2227 22.752 12.6555 24.1972 14.24 25.7972C16.8227 28.4026 19.8111 31.4178 26.3401 31.4178C33.3636 31.4178 37.7538 27.9277 39.5097 20.9455C36.8754 24.4366 33.8023 25.7455 30.2906 24.8733C28.287 24.3747 26.8542 22.9295 25.2697 21.3306C22.687 18.7252 19.6975 15.7089 13.1695 15.7089Z" fill="#38BDF8"/>
<path fill-rule="evenodd" clip-rule="evenodd" d="M79.0153 13.2386H74.4186V22.082C74.4186 24.4407 75.9753 24.4035 79.0153 24.2559V27.8306C72.8609 28.5677 70.4145 26.8727 70.4145 22.082V13.2386H67.0039V9.40586H70.4145V4.45721L74.4186 3.27734V9.40586H79.0153V13.2386ZM96.5368 9.40586H100.54V27.8306H96.5368V25.1777C95.1278 27.1297 92.9404 28.3096 90.0491 28.3096C85.0075 28.3096 80.8186 24.0722 80.8186 18.6177C80.8186 13.1282 85.0075 8.92689 90.0491 8.92689C92.9404 8.92689 95.1278 10.1057 96.5368 12.0226V9.40586ZM90.6798 24.514C94.016 24.514 96.5368 22.0448 96.5368 18.6177C96.5368 15.1906 94.016 12.7225 90.6798 12.7225C87.3435 12.7225 84.8227 15.1917 84.8227 18.6177C84.8227 22.0448 87.3435 24.514 90.6798 24.514ZM107.212 6.6425C105.804 6.6425 104.656 5.46366 104.656 4.10005C104.659 3.42426 104.93 2.77729 105.409 2.30078C105.888 1.82427 106.537 1.55705 107.212 1.5576C107.888 1.55677 108.537 1.82388 109.017 2.30042C109.496 2.77696 109.767 3.42408 109.77 4.10005C109.77 5.46263 108.621 6.6425 107.212 6.6425ZM105.211 27.8306V9.40586H109.215V27.8306H105.211ZM113.849 27.8306V0.928955H117.852V27.8296H113.849V27.8306ZM143.839 9.40586H148.065L142.245 27.8306H138.315L134.46 15.4126L130.567 27.8306H126.638L120.818 9.40586H125.044L128.64 22.1181L132.533 9.40586H136.351L140.205 22.1181L143.839 9.40586ZM153.032 6.6425C151.623 6.6425 150.474 5.46366 150.474 4.10005C150.478 3.42408 150.749 2.77696 151.228 2.30042C151.708 1.82388 152.356 1.55677 153.032 1.5576C153.708 1.55677 154.357 1.82388 154.836 2.30042C155.316 2.77696 155.587 3.42408 155.59 4.10005C155.59 5.46263 154.441 6.6425 153.032 6.6425ZM151.031 27.8306V9.40586H155.034V27.8306H151.031ZM169.417 8.92689C173.569 8.92689 176.535 11.7274 176.535 16.5181V27.8296H172.532V16.9228C172.532 14.1222 170.901 12.6492 168.38 12.6492C165.748 12.6492 163.672 14.1966 163.672 17.955V27.8306H159.668V9.40586H163.672V11.7646C164.895 9.8487 166.897 8.92689 169.417 8.92689ZM195.515 2.03657H199.519V27.8296H195.515V25.1767C194.107 27.1297 191.92 28.3086 189.028 28.3086C183.987 28.3086 179.798 24.0711 179.798 18.6167C179.798 13.1271 183.987 8.92586 189.028 8.92586C191.92 8.92586 194.107 10.1047 195.515 12.0216V2.03657ZM189.658 24.514C192.994 24.514 195.515 22.0448 195.515 18.6177C195.515 15.1906 192.994 12.7225 189.658 12.7225C186.322 12.7225 183.801 15.1917 183.801 18.6177C183.801 22.0448 186.322 24.514 189.658 24.514ZM212.938 28.3096C207.34 28.3096 203.152 24.0722 203.152 18.6177C203.152 13.1282 207.34 8.92689 212.938 8.92689C216.571 8.92689 219.722 10.8056 221.205 13.6804L217.757 15.6706C216.941 13.9385 215.126 12.833 212.901 12.833C209.639 12.833 207.156 15.3021 207.156 18.6177C207.156 21.9344 209.639 24.4035 212.901 24.4035C215.126 24.4035 216.941 23.2608 217.831 21.5659L221.279 23.5189C219.722 26.4299 216.571 28.3096 212.938 28.3096ZM227.877 14.4908C227.877 17.8446 237.85 15.8172 237.85 22.6353C237.85 26.3204 234.624 28.3096 230.621 28.3096C226.914 28.3096 224.245 26.6508 223.059 23.9979L226.506 22.0087C227.099 23.6665 228.582 24.6616 230.621 24.6616C232.401 24.6616 233.771 24.0722 233.771 22.5971C233.771 19.3186 223.8 21.1612 223.8 14.5651C223.8 11.1008 226.803 8.92689 230.584 8.92689C233.624 8.92689 236.145 10.3277 237.442 12.7597L234.069 14.6384C233.401 13.2015 232.103 12.5377 230.584 12.5377C229.138 12.5377 227.877 13.1643 227.877 14.4908ZM244.967 14.4908C244.967 17.8446 254.939 15.8172 254.939 22.6353C254.939 26.3204 251.714 28.3096 247.71 28.3096C244.003 28.3096 241.335 26.6508 240.148 23.9979L243.595 22.0087C244.189 23.6665 245.671 24.6616 247.71 24.6616C249.49 24.6616 250.861 24.0722 250.861 22.5971C250.861 19.3186 240.89 21.1612 240.89 14.5651C240.89 11.1008 243.892 8.92689 247.674 8.92689C250.713 8.92689 253.234 10.3277 254.531 12.7597L251.158 14.6384C250.491 13.2015 249.193 12.5377 247.674 12.5377C246.228 12.5377 244.967 13.1643 244.967 14.4908Z" fill="black"/>
</svg>
