<svg width="256" height="256" viewBox="0 0 256 256" fill="none" xmlns="http://www.w3.org/2000/svg">
<g clip-path="url(#clip0_2403_1480)">
<path d="M231 0H25C11.1929 0 0 11.1929 0 25V231C0 244.807 11.1929 256 25 256H231C244.807 256 256 244.807 256 231V25C256 11.1929 244.807 0 231 0Z" fill="#3178C6"/>
<path d="M231 0H25C11.1929 0 0 11.1929 0 25V231C0 244.807 11.1929 256 25 256H231C244.807 256 256 244.807 256 231V25C256 11.1929 244.807 0 231 0Z" fill="#3178C6"/>
<path fill-rule="evenodd" clip-rule="evenodd" d="M158.469 203.712V228.742C162.538 230.828 167.351 232.393 172.907 233.436C178.463 234.479 184.319 235 190.475 235C196.474 235 202.173 234.427 207.572 233.279C212.972 232.132 217.706 230.242 221.775 227.608C225.844 224.975 229.066 221.533 231.439 217.283C233.813 213.033 235 207.78 235 201.522C235 196.985 234.322 193.009 232.965 189.594C231.609 186.178 229.653 183.141 227.096 180.481C224.54 177.822 221.475 175.436 217.902 173.324C214.328 171.212 210.298 169.217 205.812 167.34C202.525 165.984 199.578 164.667 196.969 163.39C194.361 162.112 192.144 160.809 190.318 159.479C188.492 158.149 187.083 156.741 186.092 155.255C185.102 153.769 184.605 152.087 184.605 150.21C184.605 148.489 185.049 146.937 185.936 145.555C186.823 144.173 188.075 142.988 189.692 141.997C191.309 141.006 193.292 140.236 195.639 139.689C197.987 139.141 200.595 138.868 203.464 138.868C205.551 138.868 207.755 139.025 210.077 139.337C212.398 139.65 214.732 140.132 217.081 140.784C219.428 141.436 221.71 142.258 223.928 143.248C226.145 144.239 228.192 145.386 230.07 146.69V123.302C226.262 121.842 222.102 120.76 217.589 120.056C213.077 119.352 207.898 119 202.056 119C196.109 119 190.475 119.639 185.154 120.916C179.833 122.194 175.15 124.189 171.107 126.9C167.064 129.612 163.869 133.066 161.521 137.264C159.174 141.462 158 146.481 158 152.322C158 159.779 160.152 166.141 164.456 171.408C168.759 176.674 175.294 181.133 184.058 184.783C187.501 186.191 190.71 187.572 193.683 188.928C196.656 190.285 199.226 191.692 201.391 193.152C203.555 194.612 205.264 196.203 206.516 197.924C207.768 199.644 208.395 201.6 208.395 203.79C208.395 205.407 208.003 206.906 207.221 208.288C206.438 209.67 205.251 210.869 203.66 211.886C202.069 212.903 200.087 213.698 197.713 214.271C195.339 214.845 192.561 215.132 189.379 215.132C183.953 215.132 178.581 214.18 173.259 212.277C167.938 210.374 163.008 207.519 158.469 203.712ZM116.39 142.041H148.5V121.5H59V142.041H90.953V233.5H116.39V142.041Z" fill="white"/>
</g>
<defs>
<clipPath id="clip0_2403_1480">
<rect width="256" height="256" fill="white"/>
</clipPath>
</defs>
</svg>
